<svg width="15" height="15" viewBox="0 0 15 15" fill="none" xmlns="http://www.w3.org/2000/svg">
<path d="M7.5 1.25002C6.26387 1.25002 5.0555 1.61657 4.02769 2.30333C2.99988 2.99009 2.1988 3.96621 1.72576 5.10824C1.25271 6.25028 1.12894 7.50695 1.37009 8.71933C1.61125 9.93171 2.20651 11.0454 3.08059 11.9194C3.95466 12.7935 5.06831 13.3888 6.28069 13.6299C7.49307 13.8711 8.74974 13.7473 9.89177 13.2743C11.0338 12.8012 12.0099 12.0001 12.6967 10.9723C13.3834 9.94452 13.75 8.73615 13.75 7.50002C13.75 6.67925 13.5883 5.86653 13.2743 5.10824C12.9602 4.34996 12.4998 3.66096 11.9194 3.0806C11.3391 2.50023 10.6501 2.03986 9.89177 1.72577C9.13349 1.41168 8.32076 1.25002 7.5 1.25002ZM10.1875 6.00627L7.33125 9.75626C7.27303 9.8319 7.19826 9.89319 7.11267 9.93545C7.02708 9.9777 6.93295 9.99979 6.8375 10C6.74257 10.0005 6.64877 9.9794 6.56322 9.93825C6.47766 9.8971 6.40261 9.837 6.34375 9.76252L4.81875 7.81877C4.76828 7.75393 4.73106 7.67978 4.70924 7.60056C4.68742 7.52134 4.68142 7.43859 4.69157 7.35705C4.70173 7.27551 4.72785 7.19677 4.76844 7.12532C4.80902 7.05387 4.86329 6.99112 4.92813 6.94064C5.05908 6.8387 5.22516 6.79295 5.38984 6.81346C5.47138 6.82362 5.55013 6.84974 5.62157 6.89032C5.69302 6.93091 5.75578 6.98517 5.80625 7.05001L6.825 8.35002L9.1875 5.22502C9.23757 5.15935 9.30008 5.1042 9.37146 5.06269C9.44284 5.02119 9.5217 4.99415 9.60353 4.98313C9.68537 4.9721 9.76857 4.9773 9.84839 4.99843C9.92821 5.01956 10.0031 5.0562 10.0688 5.10627C10.1344 5.15633 10.1896 5.21884 10.2311 5.29022C10.2726 5.36161 10.2996 5.44046 10.3106 5.5223C10.3217 5.60413 10.3165 5.68733 10.2953 5.76715C10.2742 5.84698 10.2376 5.92185 10.1875 5.98752V6.00627Z" fill="#40B13D" fill-opacity="0.6"/>
</svg>
