<svg width="15" height="15" viewBox="0 0 15 15" fill="none" xmlns="http://www.w3.org/2000/svg">
<path d="M7.50012 1.25002C6.18266 1.24995 4.91841 1.76986 3.98215 2.69676C3.04589 3.62365 2.5133 4.88262 2.50012 6.20002C2.50012 9.62502 6.90637 13.4375 7.09387 13.6C7.20708 13.6968 7.35115 13.7501 7.50012 13.7501C7.64909 13.7501 7.79316 13.6968 7.90637 13.6C8.12512 13.4375 12.5001 9.62502 12.5001 6.20002C12.4869 4.88262 11.9544 3.62365 11.0181 2.69676C10.0818 1.76986 8.81759 1.24995 7.50012 1.25002ZM7.50012 12.2813C6.45637 11.2875 3.75012 8.53127 3.75012 6.20002C3.75012 5.20545 4.14521 4.25163 4.84847 3.54836C5.55173 2.8451 6.50556 2.45002 7.50012 2.45002C8.49468 2.45002 9.44851 2.8451 10.1518 3.54836C10.855 4.25163 11.2501 5.20545 11.2501 6.20002C11.2501 8.51252 8.54387 11.2875 7.50012 12.2813Z" fill="#7E7E7E"/>
<path d="M7.50012 3.75C7.06748 3.75 6.64455 3.87829 6.28481 4.11866C5.92508 4.35903 5.6447 4.70067 5.47914 5.10038C5.31357 5.50009 5.27025 5.93993 5.35466 6.36426C5.43906 6.78859 5.6474 7.17837 5.95333 7.4843C6.25925 7.79022 6.64903 7.99856 7.07336 8.08297C7.4977 8.16737 7.93753 8.12405 8.33724 7.95849C8.73696 7.79292 9.0786 7.51254 9.31896 7.15281C9.55933 6.79308 9.68762 6.37015 9.68762 5.9375C9.68762 5.35734 9.45715 4.80094 9.04692 4.3907C8.63668 3.98047 8.08028 3.75 7.50012 3.75ZM7.50012 6.875C7.3147 6.875 7.13345 6.82002 6.97928 6.717C6.82511 6.61399 6.70494 6.46757 6.63399 6.29627C6.56303 6.12496 6.54446 5.93646 6.58064 5.7546C6.61681 5.57275 6.7061 5.4057 6.83721 5.27459C6.96832 5.14348 7.13537 5.05419 7.31723 5.01801C7.49908 4.98184 7.68758 5.00041 7.85889 5.07136C8.03019 5.14232 8.17661 5.26248 8.27963 5.41665C8.38264 5.57082 8.43762 5.75208 8.43762 5.9375C8.43762 6.18614 8.33885 6.4246 8.16304 6.60041C7.98722 6.77623 7.74876 6.875 7.50012 6.875Z" fill="#7E7E7E"/>
</svg>
