<svg width="20" height="20" viewBox="0 0 20 20" fill="none" xmlns="http://www.w3.org/2000/svg">
<path d="M10.7833 18.3333H9.20829C8.83699 18.3333 8.48089 18.1858 8.21834 17.9233C7.95579 17.6607 7.80829 17.3046 7.80829 16.9333V16.025C7.80378 15.9715 7.78415 15.9204 7.75169 15.8776C7.71923 15.8348 7.67528 15.8021 7.62496 15.7833C7.57397 15.7507 7.51468 15.7333 7.45412 15.7333C7.39357 15.7333 7.33428 15.7507 7.28329 15.7833L6.66663 16.45C6.53727 16.5803 6.38343 16.6837 6.21395 16.7542C6.04447 16.8247 5.8627 16.8611 5.67913 16.8611C5.49555 16.8611 5.31379 16.8247 5.14431 16.7542C4.97483 16.6837 4.82098 16.5803 4.69163 16.45L3.54996 15.3333C3.41781 15.2042 3.31285 15.05 3.24129 14.8797C3.16973 14.7093 3.13301 14.5264 3.13329 14.3417C3.13383 13.9638 3.28358 13.6014 3.54996 13.3333L4.16663 12.7167C4.1964 12.6708 4.21224 12.6172 4.21224 12.5625C4.21224 12.5078 4.1964 12.4542 4.16663 12.4083C4.11663 12.2833 4.03329 12.1917 3.91663 12.1917H3.06663C2.69456 12.1895 2.33848 12.0401 2.07617 11.7762C1.81385 11.5124 1.66662 11.1554 1.66663 10.7833V9.20834C1.66663 8.83704 1.81413 8.48094 2.07668 8.21839C2.33923 7.95584 2.69532 7.80834 3.06663 7.80834H3.97496C4.02847 7.80383 4.07961 7.7842 4.12239 7.75174C4.16518 7.71928 4.19786 7.67533 4.21663 7.625C4.24929 7.57402 4.26666 7.51473 4.26666 7.45417C4.26666 7.39361 4.24929 7.33433 4.21663 7.28334L3.54996 6.66667C3.4197 6.53732 3.31631 6.38347 3.24576 6.21399C3.17521 6.04451 3.13889 5.86275 3.13889 5.67917C3.13889 5.49559 3.17521 5.31383 3.24576 5.14435C3.31631 4.97487 3.4197 4.82102 3.54996 4.69167L4.66663 3.55001C4.79446 3.41848 4.94731 3.31386 5.11619 3.2423C5.28506 3.17074 5.46655 3.1337 5.64996 3.13334C5.8385 3.13251 6.02535 3.16889 6.1998 3.24039C6.37426 3.31189 6.5329 3.4171 6.66663 3.55001L7.28329 4.16667C7.3292 4.19644 7.38274 4.21229 7.43746 4.21229C7.49217 4.21229 7.54572 4.19644 7.59162 4.16667C7.71662 4.11667 7.80829 4.03334 7.80829 3.91667V3.06667C7.81049 2.6946 7.95984 2.33853 8.22372 2.07621C8.48759 1.8139 8.84455 1.66667 9.21663 1.66667H10.8333C11.2046 1.66667 11.5607 1.81417 11.8232 2.07672C12.0858 2.33927 12.2333 2.69537 12.2333 3.06667V3.97501C12.2378 4.02852 12.2574 4.07965 12.2899 4.12244C12.3224 4.16523 12.3663 4.19791 12.4166 4.21667C12.4676 4.24934 12.5269 4.2667 12.5875 4.2667C12.648 4.2667 12.7073 4.24934 12.7583 4.21667L13.3333 3.55001C13.4626 3.41974 13.6165 3.31636 13.786 3.24581C13.9555 3.17526 14.1372 3.13894 14.3208 3.13894C14.5044 3.13894 14.6861 3.17526 14.8556 3.24581C15.0251 3.31636 15.1789 3.41974 15.3083 3.55001L16.45 4.66667C16.5817 4.79605 16.6864 4.95037 16.758 5.12062C16.8295 5.29088 16.8664 5.47367 16.8666 5.65834C16.8706 5.84608 16.8357 6.03262 16.764 6.20618C16.6923 6.37973 16.5853 6.53653 16.45 6.66667L15.8333 7.28334C15.8035 7.32924 15.7877 7.38279 15.7877 7.43751C15.7877 7.49222 15.8035 7.54576 15.8333 7.59167C15.8833 7.71667 15.9666 7.80834 16.0833 7.80834H16.9916C17.3535 7.82549 17.6948 7.9814 17.9446 8.24368C18.1945 8.50596 18.3337 8.85443 18.3333 9.21667V10.8333C18.3333 11.2046 18.1858 11.5607 17.9232 11.8233C17.6607 12.0858 17.3046 12.2333 16.9333 12.2333H16.025C15.9714 12.2379 15.9203 12.2575 15.8775 12.2899C15.8347 12.3224 15.8021 12.3664 15.7833 12.4167C15.7535 12.4626 15.7377 12.5161 15.7377 12.5708C15.7377 12.6256 15.7535 12.6791 15.7833 12.725L16.425 13.3667C16.5552 13.496 16.6586 13.6499 16.7292 13.8194C16.7997 13.9888 16.836 14.1706 16.836 14.3542C16.836 14.5377 16.7997 14.7195 16.7292 14.889C16.6586 15.0585 16.5552 15.2123 16.425 15.3417L15.3333 16.45C15.2055 16.5815 15.0526 16.6861 14.8837 16.7577C14.7149 16.8293 14.5334 16.8663 14.35 16.8667C13.9778 16.8618 13.6222 16.7124 13.3583 16.45L12.7166 15.8333C12.6707 15.8036 12.6172 15.7877 12.5625 15.7877C12.5077 15.7877 12.4542 15.8036 12.4083 15.8333C12.2833 15.8833 12.1916 15.9667 12.1916 16.0833V16.9917C12.1745 17.3535 12.0186 17.6948 11.7563 17.9447C11.494 18.1946 11.1455 18.3337 10.7833 18.3333V18.3333ZM9.47496 16.6667H10.525V16.025C10.5285 15.6407 10.646 15.2661 10.8626 14.9487C11.0792 14.6312 11.3851 14.3852 11.7416 14.2417C12.0996 14.0852 12.4961 14.0389 12.8805 14.1086C13.2649 14.1784 13.6198 14.3611 13.9 14.6333L14.35 15.0833L15.0833 14.35L14.6333 13.8917C14.3627 13.6157 14.1803 13.2656 14.109 12.8858C14.0378 12.506 14.0811 12.1135 14.2333 11.7583C14.3781 11.4034 14.6247 11.0992 14.942 10.8842C15.2594 10.6692 15.6333 10.5529 16.0166 10.55H16.6666V9.475H16.025C15.6407 9.47146 15.2661 9.35395 14.9486 9.13736C14.6312 8.92078 14.3851 8.61486 14.2416 8.25834C14.0851 7.90036 14.0388 7.50389 14.1086 7.11949C14.1783 6.73509 14.361 6.38018 14.6333 6.10001L15.0833 5.65001L14.35 4.91667L13.8916 5.36667C13.6114 5.62264 13.2639 5.79321 12.8899 5.8583C12.516 5.92339 12.1313 5.88028 11.7811 5.73405C11.4308 5.58783 11.1297 5.34458 10.913 5.03294C10.6964 4.7213 10.5733 4.35424 10.5583 3.97501V3.33334H9.47496V3.97501C9.47141 4.35929 9.3539 4.73389 9.13732 5.05135C8.92073 5.36881 8.61481 5.61486 8.25829 5.75834C7.90032 5.91481 7.50385 5.96113 7.11945 5.89137C6.73504 5.82161 6.38013 5.63895 6.09996 5.36667L5.64996 4.91667L4.91663 5.65001L5.36663 6.10834C5.62259 6.38857 5.79317 6.7361 5.85825 7.11002C5.92334 7.48393 5.88023 7.86866 5.73401 8.2189C5.58778 8.56914 5.34453 8.8703 5.03289 9.08693C4.72125 9.30357 4.3542 9.42664 3.97496 9.44167H3.33329V10.4917H3.97496C4.35925 10.4952 4.73384 10.6127 5.0513 10.8293C5.36876 11.0459 5.61481 11.3518 5.75829 11.7083C5.91477 12.0663 5.96108 12.4628 5.89132 12.8472C5.82157 13.2316 5.6389 13.5865 5.36663 13.8667L4.91663 14.3167L5.64996 15.05L6.10829 14.6C6.38852 14.344 6.73605 14.1735 7.10997 14.1084C7.48388 14.0433 7.86861 14.0864 8.21885 14.2326C8.56909 14.3788 8.87026 14.6221 9.08689 14.9337C9.30352 15.2454 9.4266 15.6124 9.44162 15.9917L9.47496 16.6667Z" fill="#4F79C6"/>
<path d="M10 12.9167C9.42318 12.9167 8.85927 12.7456 8.37963 12.4252C7.89999 12.1047 7.52615 11.6492 7.30539 11.1162C7.08464 10.5833 7.02688 9.99681 7.13942 9.43103C7.25196 8.86525 7.52974 8.34555 7.93765 7.93765C8.34555 7.52974 8.86525 7.25196 9.43103 7.13942C9.99681 7.02688 10.5833 7.08464 11.1162 7.30539C11.6492 7.52615 12.1047 7.89999 12.4252 8.37963C12.7456 8.85927 12.9167 9.42318 12.9167 10C12.9167 10.7736 12.6094 11.5155 12.0624 12.0624C11.5155 12.6094 10.7736 12.9167 10 12.9167V12.9167ZM10 8.75004C9.75282 8.75004 9.51114 8.82335 9.30558 8.96071C9.10002 9.09806 8.9398 9.29328 8.84519 9.52169C8.75058 9.7501 8.72583 10.0014 8.77406 10.2439C8.82229 10.4864 8.94134 10.7091 9.11616 10.8839C9.29097 11.0587 9.5137 11.1778 9.75618 11.226C9.99866 11.2743 10.25 11.2495 10.4784 11.1549C10.7068 11.0603 10.902 10.9001 11.0394 10.6945C11.1767 10.4889 11.25 10.2473 11.25 10C11.25 9.66852 11.1183 9.35058 10.8839 9.11616C10.6495 8.88174 10.3316 8.75004 10 8.75004Z" fill="#4F79C6"/>
</svg>
