<svg width="120" height="120" viewBox="0 0 120 120" fill="none" xmlns="http://www.w3.org/2000/svg">
<path d="M100.555 78.2257C103.647 71.4292 104.998 63.9703 104.489 56.5211C103.979 49.072 101.623 41.8667 97.6348 35.5548C93.6462 29.2428 88.1497 24.0225 81.6406 20.3644C75.1316 16.7063 67.8145 14.7253 60.349 14.5999L60.0185 34.2846C64.2179 34.3551 68.3337 35.4695 71.9951 37.5272C75.6564 39.5849 78.7482 42.5213 80.9918 46.0717C83.2354 49.6222 84.5603 53.6752 84.8471 57.8653C85.1338 62.0555 84.3734 66.2511 82.6345 70.0742L100.555 78.2257Z" fill="#B9C9E8"/>
<path d="M60.349 14.6C52.2344 14.4637 44.234 16.5245 37.1951 20.5641C30.1561 24.6037 24.3406 30.4716 20.3644 37.5466C16.3883 44.6216 14.3994 52.6402 14.6086 60.7532C14.8177 68.8662 17.217 76.7717 21.5524 83.6324C25.8878 90.4931 31.9979 96.0537 39.2356 99.7253C46.4733 103.397 54.5693 105.043 62.6661 104.489C70.7629 103.934 78.5591 101.201 85.2292 96.5776C91.8992 91.9543 97.1948 85.6131 100.555 78.2257L82.6344 70.0742C80.7443 74.2296 77.7655 77.7965 74.0136 80.3971C70.2617 82.9978 65.8763 84.5353 61.3219 84.847C56.7674 85.1587 52.2135 84.2329 48.1422 82.1677C44.071 80.1024 40.6341 76.9746 38.1954 73.1154C35.7568 69.2563 34.4072 64.8095 34.2895 60.2459C34.1719 55.6823 35.2906 51.1718 37.5272 47.1922C39.7638 43.2125 43.035 39.9118 46.9944 37.6395C50.9538 35.3672 55.4541 34.208 60.0185 34.2847L60.349 14.6Z" fill="#4F79C6"/>
</svg>
